<?xml version="1.0" encoding="UTF-8"?>
<svg id="Layer_1" xmlns="http://www.w3.org/2000/svg" version="1.1" viewBox="0 0 198 44">
  <!-- Generator: Adobe Illustrator 29.8.2, SVG Export Plug-In . SVG Version: 2.1.1 Build 3)  -->
  <defs>
    <style>
      .st0 {
        stroke: #000;
        stroke-miterlimit: 10;
        stroke-width: .2px;
      }
    </style>
  </defs>
  <path class="st0" d="M2,14.3h9.2c4.2,0,6.6,1.8,6.6,4.2s-1.1,3.2-3.5,3.7h0c2.4.4,4.2,1.5,4.2,3.9,0,3.8-4.3,4.5-7.5,4.5H2V14.3ZM9.8,20.8c1.6,0,3.5-.1,3.5-1.5s-1.9-1.5-3.5-1.5h-3.6v3.1h3.5ZM10.2,27.3c1.6,0,3.8-.1,3.8-1.6s-2.2-1.6-3.7-1.6h-4v3.3h3.9Z"/>
  <path class="st0" d="M24.2,14.3h4.3v16.5h-4.3V14.3Z"/>
  <path class="st0" d="M35.3,14.3h4.4c3.1,3.1,6.3,6.4,9.4,9.8h0v-9.8h4.2v16.5h-4.4c-3.1-3.2-6.3-6.2-9.4-9.6h0v9.6h-4.3V14.3Z"/>
  <path class="st0" d="M66.2,14.3h5l8.2,16.5h-4.5c-.7-1.2-1.3-2.5-2-3.8h-8.4c-.7,1.2-1.3,2.5-2,3.8h-4.4l8.2-16.5ZM71,23.3c-.8-1.5-1.5-3-2.3-4.5h0c-.8,1.6-1.5,3.1-2.3,4.5h4.6Z"/>
  <path class="st0" d="M84,14.3h8.4c1.3,0,7.6,0,7.6,5.4s-2.4,4.5-4.8,5h0c1.8,2,3.6,4,5.4,6h-4.8l-5.1-5.6h-2.3v5.6h-4.3V14.3ZM91.6,21.8c1.5,0,3.9-.1,3.9-2s-2.4-2.1-3.8-2.1h-3.4v4.1h3.4Z"/>
  <path class="st0" d="M110.4,25.2c-2.3-3.3-7.4-10.7-7.6-11h4.6c1.7,2.4,3.4,4.8,5.1,7.2h0c1.7-2.4,3.4-4.8,5.1-7.2h4.6c-2.5,3.6-5,7.3-7.6,10.9v5.6h-4.2v-5.5Z"/>
  <path class="st0" d="M131.5,14.3h5l8.2,16.5h-4.5c-.7-1.2-1.3-2.5-2-3.8h-8.4c-.7,1.2-1.3,2.5-2,3.8h-4.4l8.2-16.5ZM136.3,23.3c-.8-1.5-1.5-3-2.3-4.5h0c-.8,1.6-1.5,3.1-2.3,4.5h4.6Z"/>
  <path class="st0" d="M153.9,22.6h0c-2.2-2.8-4.5-5.6-6.8-8.3h5c1.5,1.7,3,3.5,4.5,5.2h0c1.5-1.7,3-3.5,4.5-5.2h5c-2.3,2.7-4.6,5.5-6.9,8.3h0c2.2,2.8,4.5,5.5,6.8,8.2h-5.1c-1.4-1.7-2.9-3.4-4.3-5.1h0c-1.5,1.7-2.9,3.4-4.4,5.1h-5.1c2.3-2.7,4.6-5.4,6.8-8.2Z"/>
  <path class="st0" d="M170.8,14.3h4.3v16.5h-4.3V14.3Z"/>
  <path class="st0" d="M180.4,26.2l4-1.2c.9,2.2,2.8,2.7,4.6,2.7s3.5-.6,3.5-1.6-2-1.6-3.6-2l-1.9-.4c-2.1-.5-5.8-1.6-5.8-4.8s3.3-5,7.5-5,6.9,2,7.6,3.8l-3.9,1.4c-.6-1.1-1.9-1.8-3.7-1.8s-3,.6-3,1.4c0,1.1,2.2,1.6,3.7,2l2.3.5c1.9.5,5.4,1.3,5.4,4.5s-3.1,5.4-8,5.4-7.6-1.9-8.6-4.9Z"/>
</svg>