<?xml version="1.0" encoding="UTF-8"?>
<svg id="Layer_1" xmlns="http://www.w3.org/2000/svg" version="1.1" viewBox="0 0 120 30">
  <!-- Generator: Adobe Illustrator 29.8.2, SVG Export Plug-In . SVG Version: 2.1.1 Build 3)  -->
  <defs>
    <style>
      .st0 {
        stroke: #000;
        stroke-miterlimit: 10;
        stroke-width: .2px;
      }
    </style>
  </defs>
  <path class="st0" d="M0,9.9h5.6c2.6,0,4.1,1.1,4.1,2.6s-.7,2-2.1,2.3h0c1.5.3,2.6.9,2.6,2.4,0,2.3-2.7,2.8-4.6,2.8H0v-10.1ZM4.8,13.9c1,0,2.2,0,2.2-.9s-1.2-.9-2.1-.9h-2.2v1.9h2.2ZM5,17.9c1,0,2.3,0,2.3-1s-1.3-1-2.3-1h-2.5v2h2.4Z"/>
  <path class="st0" d="M13.6,9.9h2.6v10.1h-2.6v-10.1Z"/>
  <path class="st0" d="M20.5,9.9h2.7c1.9,1.9,3.9,3.9,5.8,6h0v-6h2.6v10.1h-2.7c-1.9-2-3.9-3.8-5.8-5.9h0v5.9h-2.6v-10.1Z"/>
  <path class="st0" d="M39.5,9.9h3.1l5.1,10.1h-2.8c-.4-.8-.8-1.5-1.2-2.3h-5.2c-.4.8-.8,1.5-1.2,2.3h-2.7l5.1-10.1ZM42.4,15.5c-.5-.9-.9-1.8-1.4-2.8h0c-.5,1-.9,1.9-1.4,2.8h2.8Z"/>
  <path class="st0" d="M50.5,9.9h5.2c.8,0,4.7,0,4.7,3.4s-1.5,2.8-3,3.1h0c1.1,1.2,2.2,2.5,3.3,3.7h-3l-3.1-3.5h-1.4v3.5h-2.6v-10.1ZM55.2,14.6c.9,0,2.4,0,2.4-1.2s-1.5-1.3-2.3-1.3h-2.1v2.5h2.1Z"/>
  <path class="st0" d="M66.7,16.7c-1.4-2-4.6-6.6-4.7-6.7h2.8c1.1,1.5,2.1,3,3.1,4.4h0c1.1-1.5,2.1-3,3.1-4.4h2.8c-1.6,2.2-3.1,4.5-4.7,6.7v3.4h-2.6v-3.4Z"/>
  <path class="st0" d="M79.7,9.9h3.1l5.1,10.1h-2.8c-.4-.8-.8-1.5-1.2-2.3h-5.2c-.4.8-.8,1.5-1.2,2.3h-2.7l5.1-10.1ZM82.6,15.5c-.5-.9-.9-1.8-1.4-2.8h0c-.5,1-.9,1.9-1.4,2.8h2.8Z"/>
  <path class="st0" d="M93.5,15h0c-1.4-1.7-2.8-3.4-4.2-5.1h3.1c.9,1.1,1.8,2.1,2.8,3.2h0c.9-1.1,1.9-2.1,2.8-3.2h3.1c-1.4,1.7-2.8,3.4-4.2,5.1h0c1.4,1.7,2.8,3.4,4.2,5.1h-3.2c-.9-1-1.8-2.1-2.7-3.1h0c-.9,1-1.8,2.1-2.7,3.1h-3.2c1.4-1.7,2.8-3.4,4.2-5Z"/>
  <path class="st0" d="M103.9,9.9h2.6v10.1h-2.6v-10.1Z"/>
  <path class="st0" d="M109.8,17.3l2.4-.7c.5,1.4,1.7,1.7,2.8,1.7s2.2-.4,2.2-1-1.2-1-2.2-1.2l-1.2-.3c-1.3-.3-3.6-1-3.6-2.9s2-3.1,4.6-3.1,4.2,1.2,4.7,2.3l-2.4.9c-.4-.7-1.2-1.1-2.3-1.1s-1.8.4-1.8.8c0,.6,1.4,1,2.3,1.2l1.4.3c1.2.3,3.3.8,3.3,2.8s-1.9,3.3-4.9,3.3-4.7-1.2-5.3-3Z"/>
</svg>