<?xml version="1.0" encoding="UTF-8"?>
<svg id="Layer_1" xmlns="http://www.w3.org/2000/svg" version="1.1" viewBox="0 0 44 44">
  <!-- Generator: Adobe Illustrator 29.8.2, SVG Export Plug-In . SVG Version: 2.1.1 Build 3)  -->
  <defs>
    <style>
      .st0 {
        fill: #010066;
      }

      .st1 {
        fill: #2b8a8c;
      }

      .st2 {
        fill: none;
        stroke: #010066;
        stroke-miterlimit: 10;
        stroke-width: .8px;
      }

      .st3 {
        fill: #09034d;
      }
    </style>
  </defs>
  <path class="st1" d="M34.1,6.8l5.9,5.8-11.6,11.3,11.6,11.3-5.9,5.8-11.6-11.3-11.6,11.3-5.9-5.8,11.6-11.3L5,12.5l5.9-5.8,11.6,11.3,11.6-11.3Z"/>
  <rect class="st2" x="1.5" y="1.5" width="42" height="42"/>
  <path class="st3" d="M22.8,4.2c1,0,2.1.2,2.1,1.5s-.2.6-.4.9c.3.3.5.6.5,1,0,1.5-1.3,1.7-2.2,1.7h-2.8v-5.1h2.8ZM23.1,6.2c.4,0,.6-.2.6-.5s-.2-.4-.6-.4h-2v.9h1.9ZM21.1,8.3s1.5,0,1.7,0c.4,0,.9-.1.9-.6s-.5-.4-.9-.4h-1.7v1Z"/>
  <path class="st0" d="M23.4,39.9h-2.1c-.1.3-.3.6-.5,1h-1l2-4h1.1l2,4h-1l-.5-1ZM21.7,39.1h1.3l-.6-1.2h-.2c0,0-.2.5-.6,1.2Z"/>
</svg>