<?xml version="1.0" encoding="UTF-8"?>
<svg id="Layer_1" xmlns="http://www.w3.org/2000/svg" version="1.1" viewBox="0 0 24 25">
  <!-- Generator: Adobe Illustrator 29.8.2, SVG Export Plug-In . SVG Version: 2.1.1 Build 3)  -->
  <defs>
    <style>
      .st0 {
        fill: #fff;
      }
    </style>
  </defs>
  <path class="st0" d="M5.6,8.6v15.2H.5v-15.2h5.1ZM5.9,3.9c0,.7-.2,1.4-.8,1.9s-1.2.8-2.1.8h0c-.8,0-1.5-.3-2-.8S.2,4.6.2,3.9s.3-1.4.8-1.9,1.2-.7,2.1-.7,1.5.2,2,.7.8,1.1.8,1.9ZM23.8,15v8.7h-5v-8.1c0-1.1-.2-1.9-.6-2.5s-1.1-.9-1.9-.9-1.2.2-1.6.5-.8.8-1,1.3c-.1.3-.2.7-.2,1.2v8.5h-5c0-4.1,0-7.4,0-9.9s0-4,0-4.5v-.7s5,0,5,0v2.2h0c.2-.3.4-.6.6-.9s.5-.5.9-.8.8-.5,1.3-.7,1.1-.2,1.8-.2c1.7,0,3.2.6,4.2,1.7s1.6,2.9,1.6,5.1Z"/>
</svg>