<?xml version="1.0" encoding="UTF-8"?>
<svg id="Layer_1" xmlns="http://www.w3.org/2000/svg" version="1.1" viewBox="0 0 24 24">
  <!-- Generator: Adobe Illustrator 29.8.2, SVG Export Plug-In . SVG Version: 2.1.1 Build 3)  -->
  <defs>
    <style>
      .st0 {
        fill: #fff;
      }
    </style>
  </defs>
  <path class="st0" d="M15.2,13.1c.1,0,.6.2,1.4.6.8.4,1.3.7,1.3.8,0,0,0,.1,0,.2,0,.3,0,.7-.2,1.1-.2.4-.5.7-1,1s-1,.4-1.5.4-1.5-.3-2.8-.9c-1-.4-1.8-1-2.5-1.7s-1.4-1.6-2.2-2.7c-.7-1-1-2-1-2.8h0c0-1,.4-1.8,1.1-2.4.2-.2.5-.3.8-.3s.1,0,.3,0,.2,0,.3,0c.2,0,.3,0,.4,0s.1.2.2.4c0,.2.2.6.5,1.3s.4,1,.4,1.1c0,.2-.2.5-.5.8s-.5.6-.5.7,0,.1,0,.2c.3.7.8,1.4,1.5,2,.5.5,1.3,1,2.2,1.5.1,0,.2.1.3.1.1,0,.4-.2.8-.7.4-.5.6-.7.8-.7ZM12.2,20.9c1.2,0,2.4-.2,3.6-.7s2.1-1.1,2.9-2,1.5-1.8,2-2.9.7-2.3.7-3.6-.2-2.4-.7-3.6-1.1-2.1-2-2.9-1.8-1.5-2.9-2-2.3-.7-3.6-.7-2.4.2-3.6.7-2.1,1.1-2.9,2-1.5,1.8-2,2.9-.7,2.3-.7,3.6c0,2,.6,3.8,1.8,5.4l-1.2,3.4,3.5-1.1c1.5,1,3.2,1.5,5.1,1.5ZM12.2.7c1.5,0,2.9.3,4.3.9s2.5,1.4,3.5,2.4,1.8,2.2,2.4,3.5.9,2.8.9,4.3-.3,2.9-.9,4.3-1.4,2.5-2.4,3.5-2.2,1.8-3.5,2.4-2.8.9-4.3.9-3.7-.5-5.3-1.4l-6.1,2,2-5.9c-1.1-1.7-1.6-3.6-1.6-5.7s.3-2.9.9-4.3,1.4-2.5,2.4-3.5,2.2-1.8,3.5-2.4,2.8-.9,4.3-.9Z"/>
</svg>